<svg viewBox="0 0 1650.5556640625 400.0000305175781" xmlns="http://www.w3.org/2000/svg"><g><g><g><g><g><line x1="52.25" y1="376" x2="47.25" y2="376" style="visibility: inherit;" fill="rgb(0, 0, 0)" stroke="rgb(204, 204, 204)" stroke-width="1px"></line><line x1="52.25" y1="341.8181818181818" x2="47.25" y2="341.8181818181818" style="visibility: inherit;" fill="rgb(0, 0, 0)" stroke="rgb(204, 204, 204)" stroke-width="1px"></line><line x1="52.25" y1="307.6363636363636" x2="47.25" y2="307.6363636363636" style="visibility: inherit;" fill="rgb(0, 0, 0)" stroke="rgb(204, 204, 204)" stroke-width="1px"></line><line x1="52.25" y1="273.45454545454544" x2="47.25" y2="273.45454545454544" style="visibility: inherit;" fill="rgb(0, 0, 0)" stroke="rgb(204, 204, 204)" stroke-width="1px"></line><line x1="52.25" y1="239.27272727272728" x2="47.25" y2="239.27272727272728" style="visibility: inherit;" fill="rgb(0, 0, 0)" stroke="rgb(204, 204, 204)" stroke-width="1px"></line><line x1="52.25" y1="205.09090909090907" x2="47.25" y2="205.09090909090907" style="visibility: inherit;" fill="rgb(0, 0, 0)" stroke="rgb(204, 204, 204)" stroke-width="1px"></line><line x1="52.25" y1="170.90909090909093" x2="47.25" y2="170.90909090909093" style="visibility: inherit;" fill="rgb(0, 0, 0)" stroke="rgb(204, 204, 204)" stroke-width="1px"></line><line x1="52.25" y1="136.72727272727272" x2="47.25" y2="136.72727272727272" style="visibility: inherit;" fill="rgb(0, 0, 0)" stroke="rgb(204, 204, 204)" stroke-width="1px"></line><line x1="52.25" y1="102.54545454545456" x2="47.25" y2="102.54545454545456" style="visibility: inherit;" fill="rgb(0, 0, 0)" stroke="rgb(204, 204, 204)" stroke-width="1px"></line><line x1="52.25" y1="68.36363636363637" x2="47.25" y2="68.36363636363637" style="visibility: inherit;" fill="rgb(0, 0, 0)" stroke="rgb(204, 204, 204)" stroke-width="1px"></line><line x1="52.25" y1="34.18181818181819" x2="47.25" y2="34.18181818181819" style="visibility: inherit;" fill="rgb(0, 0, 0)" stroke="rgb(204, 204, 204)" stroke-width="1px"></line><line x1="52.25" y1="0" x2="47.25" y2="0" style="visibility: inherit;" fill="rgb(0, 0, 0)" stroke="rgb(204, 204, 204)" stroke-width="1px"></line></g><g transform="translate(42.25, 0)"><text x="0" y="376" dx="0em" dy="0.3em" style="text-anchor: end; visibility: hidden; font-family: &quot;Helvetica Neue&quot;, sans-serif; font-size: 12px; font-weight: 200;" fill="rgb(50, 49, 63)" stroke="none" stroke-width="1px">0.3</text><text x="0" y="341.8181818181818" dx="0em" dy="0.3em" style="text-anchor: end; visibility: inherit; font-family: &quot;Helvetica Neue&quot;, sans-serif; font-size: 12px; font-weight: 200;" fill="rgb(50, 49, 63)" stroke="none" stroke-width="1px">0.35</text><text x="0" y="307.6363636363636" dx="0em" dy="0.3em" style="text-anchor: end; visibility: inherit; font-family: &quot;Helvetica Neue&quot;, sans-serif; font-size: 12px; font-weight: 200;" fill="rgb(50, 49, 63)" stroke="none" stroke-width="1px">0.4</text><text x="0" y="273.45454545454544" dx="0em" dy="0.3em" style="text-anchor: end; visibility: inherit; font-family: &quot;Helvetica Neue&quot;, sans-serif; font-size: 12px; font-weight: 200;" fill="rgb(50, 49, 63)" stroke="none" stroke-width="1px">0.45</text><text x="0" y="239.27272727272728" dx="0em" dy="0.3em" style="text-anchor: end; visibility: inherit; font-family: &quot;Helvetica Neue&quot;, sans-serif; font-size: 12px; font-weight: 200;" fill="rgb(50, 49, 63)" stroke="none" stroke-width="1px">0.5</text><text x="0" y="205.09090909090907" dx="0em" dy="0.3em" style="text-anchor: end; visibility: inherit; font-family: &quot;Helvetica Neue&quot;, sans-serif; font-size: 12px; font-weight: 200;" fill="rgb(50, 49, 63)" stroke="none" stroke-width="1px">0.55</text><text x="0" y="170.90909090909093" dx="0em" dy="0.3em" style="text-anchor: end; visibility: inherit; font-family: &quot;Helvetica Neue&quot;, sans-serif; font-size: 12px; font-weight: 200;" fill="rgb(50, 49, 63)" stroke="none" stroke-width="1px">0.6</text><text x="0" y="136.72727272727272" dx="0em" dy="0.3em" style="text-anchor: end; visibility: inherit; font-family: &quot;Helvetica Neue&quot;, sans-serif; font-size: 12px; font-weight: 200;" fill="rgb(50, 49, 63)" stroke="none" stroke-width="1px">0.65</text><text x="0" y="102.54545454545456" dx="0em" dy="0.3em" style="text-anchor: end; visibility: inherit; font-family: &quot;Helvetica Neue&quot;, sans-serif; font-size: 12px; font-weight: 200;" fill="rgb(50, 49, 63)" stroke="none" stroke-width="1px">0.7</text><text x="0" y="68.36363636363637" dx="0em" dy="0.3em" style="text-anchor: end; visibility: inherit; font-family: &quot;Helvetica Neue&quot;, sans-serif; font-size: 12px; font-weight: 200;" fill="rgb(50, 49, 63)" stroke="none" stroke-width="1px">0.75</text><text x="0" y="34.18181818181819" dx="0em" dy="0.3em" style="text-anchor: end; visibility: inherit; font-family: &quot;Helvetica Neue&quot;, sans-serif; font-size: 12px; font-weight: 200;" fill="rgb(50, 49, 63)" stroke="none" stroke-width="1px">0.8</text><text x="0" y="0" dx="0em" dy="0.3em" style="text-anchor: end; visibility: hidden; font-family: &quot;Helvetica Neue&quot;, sans-serif; font-size: 12px; font-weight: 200;" fill="rgb(50, 49, 63)" stroke="none" stroke-width="1px">0.85</text></g><line x1="52.25" y1="0" x2="52.25" y2="376" fill="rgb(0, 0, 0)" stroke="rgb(204, 204, 204)" stroke-width="1px"></line></g></g><g transform="translate(52, 0)" clip-path="url(#clip_0)"><clipPath id="clip_0"><rect width="1579" height="375"></rect></clipPath><g><g><g><line x1="0" y1="0" x2="0" y2="376" fill="rgb(0, 0, 0)" stroke="rgb(60, 60, 60)" stroke-width="1px" opacity="0.25"></line><line x1="131.61833333333334" y1="0" x2="131.61833333333334" y2="376" fill="rgb(0, 0, 0)" stroke="rgb(60, 60, 60)" stroke-width="1px" opacity="0.25"></line><line x1="263.2366666666667" y1="0" x2="263.2366666666667" y2="376" fill="rgb(0, 0, 0)" stroke="rgb(60, 60, 60)" stroke-width="1px" opacity="0.25"></line><line x1="394.855" y1="0" x2="394.855" y2="376" fill="rgb(0, 0, 0)" stroke="rgb(60, 60, 60)" stroke-width="1px" opacity="0.25"></line><line x1="526.4733333333334" y1="0" x2="526.4733333333334" y2="376" fill="rgb(0, 0, 0)" stroke="rgb(60, 60, 60)" stroke-width="1px" opacity="0.25"></line><line x1="658.0916666666667" y1="0" x2="658.0916666666667" y2="376" fill="rgb(0, 0, 0)" stroke="rgb(60, 60, 60)" stroke-width="1px" opacity="0.25"></line><line x1="789.71" y1="0" x2="789.71" y2="376" fill="rgb(0, 0, 0)" stroke="rgb(60, 60, 60)" stroke-width="1px" opacity="0.25"></line><line x1="921.3283333333335" y1="0" x2="921.3283333333335" y2="376" fill="rgb(0, 0, 0)" stroke="rgb(60, 60, 60)" stroke-width="1px" opacity="0.25"></line><line x1="1052.9466666666667" y1="0" x2="1052.9466666666667" y2="376" fill="rgb(0, 0, 0)" stroke="rgb(60, 60, 60)" stroke-width="1px" opacity="0.25"></line><line x1="1184.565" y1="0" x2="1184.565" y2="376" fill="rgb(0, 0, 0)" stroke="rgb(60, 60, 60)" stroke-width="1px" opacity="0.25"></line><line x1="1316.1833333333334" y1="0" x2="1316.1833333333334" y2="376" fill="rgb(0, 0, 0)" stroke="rgb(60, 60, 60)" stroke-width="1px" opacity="0.25"></line><line x1="1447.8016666666667" y1="0" x2="1447.8016666666667" y2="376" fill="rgb(0, 0, 0)" stroke="rgb(60, 60, 60)" stroke-width="1px" opacity="0.25"></line><line x1="1579.42" y1="0" x2="1579.42" y2="376" fill="rgb(0, 0, 0)" stroke="rgb(60, 60, 60)" stroke-width="1px" opacity="0.25"></line></g><g><line x1="0" y1="376" x2="1579.42" y2="376" fill="rgb(0, 0, 0)" stroke="rgb(60, 60, 60)" stroke-width="1px" opacity="0.25"></line><line x1="0" y1="341.8181818181818" x2="1579.42" y2="341.8181818181818" fill="rgb(0, 0, 0)" stroke="rgb(60, 60, 60)" stroke-width="1px" opacity="0.25"></line><line x1="0" y1="307.6363636363636" x2="1579.42" y2="307.6363636363636" fill="rgb(0, 0, 0)" stroke="rgb(60, 60, 60)" stroke-width="1px" opacity="0.25"></line><line x1="0" y1="273.45454545454544" x2="1579.42" y2="273.45454545454544" fill="rgb(0, 0, 0)" stroke="rgb(60, 60, 60)" stroke-width="1px" opacity="0.25"></line><line x1="0" y1="239.27272727272728" x2="1579.42" y2="239.27272727272728" fill="rgb(0, 0, 0)" stroke="rgb(60, 60, 60)" stroke-width="1px" opacity="0.25"></line><line x1="0" y1="205.09090909090907" x2="1579.42" y2="205.09090909090907" fill="rgb(0, 0, 0)" stroke="rgb(60, 60, 60)" stroke-width="1px" opacity="0.25"></line><line x1="0" y1="170.90909090909093" x2="1579.42" y2="170.90909090909093" fill="rgb(0, 0, 0)" stroke="rgb(60, 60, 60)" stroke-width="1px" opacity="0.25"></line><line x1="0" y1="136.72727272727272" x2="1579.42" y2="136.72727272727272" fill="rgb(0, 0, 0)" stroke="rgb(60, 60, 60)" stroke-width="1px" opacity="0.25"></line><line x1="0" y1="102.54545454545456" x2="1579.42" y2="102.54545454545456" fill="rgb(0, 0, 0)" stroke="rgb(60, 60, 60)" stroke-width="1px" opacity="0.25"></line><line x1="0" y1="68.36363636363637" x2="1579.42" y2="68.36363636363637" fill="rgb(0, 0, 0)" stroke="rgb(60, 60, 60)" stroke-width="1px" opacity="0.25"></line><line x1="0" y1="34.18181818181819" x2="1579.42" y2="34.18181818181819" fill="rgb(0, 0, 0)" stroke="rgb(60, 60, 60)" stroke-width="1px" opacity="0.25"></line><line x1="0" y1="0" x2="1579.42" y2="0" fill="rgb(0, 0, 0)" stroke="rgb(60, 60, 60)" stroke-width="1px" opacity="0.25"></line></g></g></g><g><g><line x1="0" y1="581.090909090909" x2="1579.42" y2="581.090909090909" fill="rgb(0, 0, 0)" stroke="rgb(153, 153, 153)" stroke-width="1.5px"></line></g></g><g><g><line x1="131.61833333333334" y1="0" x2="131.61833333333334" y2="376" fill="rgb(0, 0, 0)" stroke="rgb(153, 153, 153)" stroke-width="1.5px"></line></g></g><g><g><g><g><g><path stroke="rgb(255, 112, 67)" stroke-width="2px" d="M158.00780916666668,391.56090930809125L164.58872583333334,375.4706858893516L171.1696425,361.4964150257322L177.75055916666668,344.69057876042564L184.33147583333334,328.08743108950125L190.9123925,312.8933158556878L197.49330916666668,299.4773964858737L204.07422583333334,287.8322984525095L210.6551425,277.79536430785663L217.23605916666668,269.15486334562195L223.81697583333332,261.6991091760888L230.3978925,255.23695901397076L236.97880916666665,249.6043202393678L243.55972583333335,244.66411206712732L250.14064249999998,240.30346656526152L256.7215591666667,236.43011427374398L263.30247583333335,232.96881312668523L269.8833925,229.85811384529893L276.4643091666667,227.04764931810186L283.04522583333335,224.49600934891734L289.6261425,222.16886572239545L296.2070591666667,220.03768595406214L302.78797583333335,218.0785060488362L309.3688925,216.27112942480883L315.9498091666667,214.59841832440824L322.53072583333335,213.0457220991382L329.1116425,211.60045275438836L335.6925591666667,210.25174881802144L342.27347583333335,208.99015958768064L348.8543925,207.807471989364L355.4353091666667,206.69642740780623L362.01622583333335,205.65068218130068L368.5971425,204.6646046096293L375.1780591666667,203.73321835646865L381.75897583333335,202.7644138081317L388.3398925,201.62273332474584L394.9208091666667,200.42552389947147L401.5017258333333,198.99557687339635L408.0826425000001,197.2404702357469L414.6635591666667,195.1951133289489L421.24447583333335,192.82979396591796L427.82539249999996,190.17336563164898L434.4063091666667,187.44947149680735L440.98722583333335,184.64316014023115L447.5681425,181.87013299206026L454.14905916666663,179.17770924800638L460.72997583333336,176.49022658139467L467.3108925,173.81407003086028L473.8918091666667,171.21709372416677L480.4727258333334,168.67267830370025L487.0536425,166.19567386842684L493.6345591666667,163.79305087756265L500.2154758333333,161.46721499808362L506.7963925000001,159.21794711574884L513.3773091666667,157.04355104255367L519.9582258333334,154.94159103868466L526.5391425,152.90922023156477L533.1200591666667,150.9434754622476L539.7009758333334,149.04140529576995L546.2818925,147.20013052820335L552.8628091666667,145.41686419172223L559.4437258333334,143.6889561559691L566.0246425,142.0139198888718L572.6055591666667,140.38936701732965L579.1864758333334,138.81306585859116L585.7673925,137.28291134243636L592.3483091666667,135.7968906653251L598.9292258333334,134.35312787953066L605.5101425,132.96156454676577L612.0910591666667,131.61551745508805L618.6719758333334,130.29901309312567L625.2528925,129.0136159802096L631.8338091666667,127.75975955394603L638.4147258333334,126.53721490206755L644.9956425,125.34533940322115L651.5765591666667,124.19401595605285L658.1574758333334,123.0672519281461L664.7383925,121.96585060479697L671.3193091666667,120.88991907647903L677.9002258333334,119.83914671677252L684.4811425,118.81300486744368L691.0620591666667,117.8108503503313L697.6429758333334,116.83197127531776L704.2238925,115.87563082427266L710.8048091666667,114.94110982058004L717.3857258333334,114.02769967253266L723.9666425,113.13469813936837L730.5475591666667,112.26145568837507L737.1284758333334,111.40730551418807L743.7093925,110.57165194365575L750.2903091666667,109.75389308547165L756.8712258333334,108.95347221491937L763.4521425,108.16982710891432L770.0330591666667,107.40245744199541L776.6139758333334,106.65083483063137L783.1948925,105.91449555225404L789.7758091666668,105.19298208255088L796.3567258333334,104.48584061616316L802.9376425,103.79265217742602L809.5185591666667,103.11300238933029L816.0994758333334,102.44649593322089L822.6803925,101.79276522461646L829.2613091666666,101.15144302037896L835.8422258333333,100.52217858133696L842.4231425000002,99.90463107069934L849.0040591666667,99.29848189226425L855.5849758333334,98.70340949502213L862.1658925,98.11912315340089L868.7468091666667,97.54533433793011L875.3277258333334,96.98173953763916L881.9086424999999,96.42809144930135L888.4895591666668,95.88412759685355L895.0704758333334,95.34959269969153L901.6513925,94.82423579448641L908.2323091666667,94.30784110659681L914.8132258333334,93.80016507711059L921.3941425,93.30098007487521L927.9750591666666,92.81010062371598L934.5559758333333,92.3273013438008L941.1368925000002,91.85239810974724L947.7178091666667,91.38518265135974L954.2987258333334,90.9254811090376L960.8796425,90.47310767121542L967.4605591666667,90.03456831033759L974.0414758333334,89.60030350284853L980.6223924999999,89.1712275923208L987.2033091666668,88.74784028741482L993.7842258333334,88.33039251584376L1000.3651425,87.91895333843024L1006.9460591666667,87.51351529418469L1013.5269758333334,87.11404130819136L1020.1078925,86.72042763969563L1026.6888091666667,86.33259574508338L1033.2697258333333,85.95041700238113L1039.8506425,85.56763685636918L1046.4315591666668,85.1927921413428L1053.0124758333334,84.82476237919934L1059.5933925,84.4568282943298L1066.1743091666667,84.08502351801297L1072.7552258333333,83.70708232314348L1079.3361425,83.34524645864991L1085.9170591666668,82.99494819590194L1092.4979758333334,82.64756290058449L1099.0788925000002,82.30953709393287L1105.6598091666667,81.97888728987363L1112.2407258333333,81.64296508654849L1118.8216425,81.30004914081849L1125.4025591666666,80.97164838652407L1131.9834758333334,80.65357036403452L1138.5643925000002,80.34326699924901L1145.1453091666667,80.02812601819727L1151.7262258333335,79.6898389093692L1158.3071425,79.36133050571112L1164.8880591666666,79.01864135707109L1171.4689758333334,78.69614658404026L1178.0498925,78.37655941038508L1184.6308091666667,78.04434093631448L1191.2117258333335,77.73265973479556L1197.7926425,77.42420596494526L1204.3735591666668,77.12437131012393L1210.9544758333334,76.76376171873596L1217.5353925,76.41520976783607L1224.1163091666667,76.03452992730763L1230.6972258333333,75.67732605242065L1237.2781425,75.31548002087885L1243.8590591666668,74.97774231106689L1250.4399758333334,74.60589809438164L1257.0208925,74.25529952668404L1263.6018091666667,73.87446746070594L1270.1827258333333,73.43324787033345L1276.7636425,72.98265678272469L1283.3445591666668,72.59165574011166L1289.9254758333334,72.20398969317921L1296.5063925000002,71.78644348465303L1303.0873091666667,71.4055387703462L1309.6682258333333,71.00059012178252L1316.2491425,70.57846055444827L1322.8300591666666,70.17614328546108L1329.4109758333334,69.74532407441501L1335.9918925000002,69.2948284306886L1342.5728091666667,68.88540140578084L1349.1537258333335,68.45616773999723L1355.7346425,68.0124422239212L1362.3155591666666,67.56655756124809L1368.8964758333334,67.10319234370019L1375.4773925,66.60440107683002L1382.0583091666667,66.08668496039576L1388.6392258333335,65.6043762272584L1395.2201425,65.12738764375916L1401.8010591666668,64.63351058363656L1408.3819758333334,64.15790987523968L1414.9628925,63.673324804760284L1421.5438091666667,63.19402506751527L1428.1247258333333,62.70686199818408L1434.7056425,62.229878362795375L1441.2865591666668,61.76938495335719" style="fill: none;" fill="none"></path></g></g></g></g><g opacity="0.2"><g><g><g><path stroke="rgb(255, 112, 67)" stroke-width="2px" d="M144.84597583333334,398.78786928003484L151.4268925,375.99999185041946L158.00780916666668,362.327277617021L164.58872583333334,353.2121144208041L171.1696425,341.51298410242254L177.75055916666668,320.18750814958054L184.33147583333334,303.6010132702914L190.9123925,290.33182551644063L197.49330916666668,279.47519883242524L204.07422583333334,270.4280235117132L210.6551425,262.7727354223078L217.23605916666668,256.21103954315186L223.81697583333332,250.52424188093707L230.3978925,245.5482913797552L236.97880916666665,241.15774562142113L243.55972583333335,237.25505412708628L250.14064249999998,233.76316261291504L256.7215591666667,230.62043987620962L263.30247583333335,227.77705123207787L269.8833925,225.1921672821045L276.4643091666667,222.83200801502574L283.04522583333335,220.6685796217485L289.6261425,218.67816682295367L296.2070591666667,216.84092539007014L302.78797583333335,215.1397412040017L309.3688925,213.56006726351652L315.9498091666667,212.0893532146107L322.53072583333335,210.71667861938477L329.1116425,209.43254921653053L335.6925591666667,208.2286931818182L342.27347583333335,207.0977758927779L348.8543925,206.03344067660245L355.4353091666667,205.02986058321866L362.01622583333335,204.08206436850807L368.5971425,203.1854882673784L375.1780591666667,202.33613898537376L381.75897583333335,201.3112069910223L388.3398925,199.91021260348234L394.9208091666667,198.62970976396042L401.5017258333333,196.8506563360041L408.0826425000001,194.60781028053978L414.6635591666667,192.1270779696378L421.24447583333335,189.28181492198598L427.82539249999996,186.1887231306596L434.4063091666667,183.3636302947998L440.98722583333335,180.43369310552424L447.5681425,177.71059226989746L454.14905916666663,175.1390736319802L460.72997583333336,172.4590025815097L467.3108925,169.79983520507812L473.8918091666667,167.32162926413795L480.4727258333334,164.85605517300695L487.0536425,162.4801672155207L493.6345591666667,160.18911639126867L500.2154758333333,157.97846117886633L506.7963925000001,155.84404529224744L513.3773091666667,153.78195693276146L519.9582258333334,151.7886510328813L526.5391425,149.86066402088514L533.1200591666667,147.99485830827192L539.7009758333334,146.18830004605383L546.2818925,144.43821837685326L552.8628091666667,142.74196468700063L559.4437258333334,141.0970941023393L566.0246425,139.5013654882258L572.6055591666667,137.95253771001643L579.1864758333334,136.4486141204834L585.7673925,134.98767956820404L592.3483091666667,133.5678596496582L598.9292258333334,132.18748370083898L605.5101425,130.87421954761854L612.0910591666667,129.5964468175715L618.6719758333334,128.324256550182L625.2528925,127.08552031083539L631.8338091666667,125.87897491455078L638.4147258333334,124.70339792424983L644.9956425,123.5575261549516L651.5765591666667,122.46703078530052L658.1574758333334,121.37710588628596L664.7383925,120.31374861977318L671.3193091666667,119.27602178400218L677.9002258333334,118.26298817721283L684.4811425,117.27379209345042L691.0620591666667,116.30761857466263L697.6429758333334,115.36365266279739L704.2238925,114.44112014770508L710.8048091666667,113.5393283150413L717.3857258333334,112.65758445046163L723.9666425,111.79519583962178L730.5475591666667,110.95159201188523L737.1284758333334,110.12608025290751L743.7093925,109.31817158785736L750.2903091666667,108.5272547981956L756.8712258333334,107.75284090909093L763.4521425,106.99435944990677L770.0330591666667,106.25140294161713L776.6139758333334,105.52340091358536L783.1948925,104.80998663468796L789.7758091666668,104.11071187799632L796.3567258333334,103.42512841658157L802.9376425,102.75286951932043L809.5185591666667,102.09352770718664L816.0994758333334,101.44673624905676L822.6803925,100.8121691617099L829.2613091666666,100.18945971402258L835.8422258333333,99.5782819227739L842.4231425000002,98.97830980474299L849.0040591666667,98.38925812461162L855.5849758333334,97.81080089915883L862.1658925,97.24269364096904L868.7468091666667,96.68465111472392L875.3277258333334,96.13634733720261L881.9086424999999,95.59761931679463L888.4895591666668,95.06818181818187L895.0704758333334,94.54779035394847L901.6513925,94.03620043667883L908.2323091666667,93.53324907476252L914.8132258333334,93.03865103288132L921.3941425,92.55220257152212L927.9750591666666,92.07378144697708L934.5559758333333,91.60310242392802L941.1368925000002,91.14004325866699L947.7178091666667,90.68435946377843L954.2987258333334,90.2359287955544L960.8796425,89.79454751448196L967.4605591666667,89.3767592690208L974.0414758333334,88.94890629161489L980.6223924999999,88.52761372652924L987.2033091666668,88.11275933005595L993.7842258333334,87.70422085848725L1000.3651425,87.30179457231003L1006.9460591666667,86.90535822781652L1013.5269758333334,86.51483032920146L1020.1078925,86.1300071369518L1026.6888091666667,85.75084790316498L1033.2697258333333,85.37714888832784L1039.8506425,84.99346663735128L1046.4315591666668,84.63052506880325L1053.0124758333334,84.27271773598409L1059.5933925,83.9049271670255L1066.1743091666667,83.5273163535378L1072.7552258333333,83.14017053083938L1079.3361425,82.80249266190964L1085.9170591666668,82.46950080177999L1092.4979758333334,82.12648495760834L1099.0788925000002,81.80249838395554L1105.6598091666667,81.48291258378464L1112.2407258333333,81.13908178156078L1118.8216425,80.78567522222346L1125.4025591666666,80.47904725508255L1131.9834758333334,80.17645333030009L1138.5643925000002,79.87781195207077L1145.1453091666667,79.55541454661977L1151.7262258333335,79.18240824612707L1158.3071425,78.86856790022415L1164.8880591666666,78.50460763411087L1171.4689758333334,78.21240442449397L1178.0498925,77.89717864990234L1184.6308091666667,77.54601322520864L1191.2117258333335,77.26513793251729L1197.7926425,76.96152531016958L1204.3735591666668,76.674619327892L1210.9544758333334,76.22284733165395L1217.5353925,75.89238184148616L1224.1163091666667,75.46351016651505L1230.6972258333333,75.14152024009013L1237.2781425,74.77271097356623L1243.8590591666668,74.47113574634903L1250.4399758333334,74.04813176935374L1257.0208925,73.72940167513764L1263.6018091666667,73.30321936173874L1270.1827258333333,72.77141848477453L1276.7636425,72.30677015131175L1283.3445591666668,72.00515417619187L1289.9254758333334,71.62249062278056L1296.5063925000002,71.16012417186391L1303.0873091666667,70.83418169888586L1309.6682258333333,70.39316714893693L1316.2491425,69.9452662034468L1322.8300591666666,69.57266738198024L1329.4109758333334,69.09909525784582L1335.9918925000002,68.61908496509903L1342.5728091666667,68.27126086841935L1349.1537258333335,67.81231724132192L1355.7346425,67.34685394980693L1362.3155591666666,66.89773056723857L1368.8964758333334,66.40814451737839L1375.4773925,65.85621417652482L1382.0583091666667,65.31011078574443L1388.6392258333335,64.88091312755239L1395.2201425,64.41190476851028L1401.8010591666668,63.89269499345261L1408.3819758333334,63.4445088126443L1414.9628925,62.946447199041245L1421.5438091666667,62.47507546164775L1428.1247258333333,61.97611739418727L1434.7056425,61.51440290971237L1441.2865591666668,61.07864483920014" style="fill: none;" fill="none"></path></g></g></g></g></g></g><g transform="translate(52, 376)" clip-path="url(#clip_1)"><clipPath id="clip_1"><rect width="1579" height="23"></rect></clipPath><g><g><line x1="0" y1="0" x2="0" y2="5" style="visibility: inherit;" fill="rgb(0, 0, 0)" stroke="rgb(204, 204, 204)" stroke-width="1px"></line><line x1="131.61833333333334" y1="0" x2="131.61833333333334" y2="5" style="visibility: inherit;" fill="rgb(0, 0, 0)" stroke="rgb(204, 204, 204)" stroke-width="1px"></line><line x1="263.2366666666667" y1="0" x2="263.2366666666667" y2="5" style="visibility: inherit;" fill="rgb(0, 0, 0)" stroke="rgb(204, 204, 204)" stroke-width="1px"></line><line x1="394.855" y1="0" x2="394.855" y2="5" style="visibility: inherit;" fill="rgb(0, 0, 0)" stroke="rgb(204, 204, 204)" stroke-width="1px"></line><line x1="526.4733333333334" y1="0" x2="526.4733333333334" y2="5" style="visibility: inherit;" fill="rgb(0, 0, 0)" stroke="rgb(204, 204, 204)" stroke-width="1px"></line><line x1="658.0916666666667" y1="0" x2="658.0916666666667" y2="5" style="visibility: inherit;" fill="rgb(0, 0, 0)" stroke="rgb(204, 204, 204)" stroke-width="1px"></line><line x1="789.71" y1="0" x2="789.71" y2="5" style="visibility: inherit;" fill="rgb(0, 0, 0)" stroke="rgb(204, 204, 204)" stroke-width="1px"></line><line x1="921.3283333333335" y1="0" x2="921.3283333333335" y2="5" style="visibility: inherit;" fill="rgb(0, 0, 0)" stroke="rgb(204, 204, 204)" stroke-width="1px"></line><line x1="1052.9466666666667" y1="0" x2="1052.9466666666667" y2="5" style="visibility: inherit;" fill="rgb(0, 0, 0)" stroke="rgb(204, 204, 204)" stroke-width="1px"></line><line x1="1184.565" y1="0" x2="1184.565" y2="5" style="visibility: inherit;" fill="rgb(0, 0, 0)" stroke="rgb(204, 204, 204)" stroke-width="1px"></line><line x1="1316.1833333333334" y1="0" x2="1316.1833333333334" y2="5" style="visibility: inherit;" fill="rgb(0, 0, 0)" stroke="rgb(204, 204, 204)" stroke-width="1px"></line><line x1="1447.8016666666667" y1="0" x2="1447.8016666666667" y2="5" style="visibility: inherit;" fill="rgb(0, 0, 0)" stroke="rgb(204, 204, 204)" stroke-width="1px"></line><line x1="1579.42" y1="0" x2="1579.42" y2="5" style="visibility: inherit;" fill="rgb(0, 0, 0)" stroke="rgb(204, 204, 204)" stroke-width="1px"></line></g><g transform="translate(0, 8)"><text x="0" y="0" dx="0em" dy="0.95em" style="text-anchor: middle; visibility: hidden; font-family: &quot;Helvetica Neue&quot;, sans-serif; font-size: 12px; font-weight: 200;" fill="rgb(50, 49, 63)" stroke="none" stroke-width="1px">-2k</text><text x="131.61833333333334" y="0" dx="0em" dy="0.95em" style="text-anchor: middle; visibility: inherit; font-family: &quot;Helvetica Neue&quot;, sans-serif; font-size: 12px; font-weight: 200;" fill="rgb(50, 49, 63)" stroke="none" stroke-width="1px">0</text><text x="263.2366666666667" y="0" dx="0em" dy="0.95em" style="text-anchor: middle; visibility: inherit; font-family: &quot;Helvetica Neue&quot;, sans-serif; font-size: 12px; font-weight: 200;" fill="rgb(50, 49, 63)" stroke="none" stroke-width="1px">2k</text><text x="394.855" y="0" dx="0em" dy="0.95em" style="text-anchor: middle; visibility: inherit; font-family: &quot;Helvetica Neue&quot;, sans-serif; font-size: 12px; font-weight: 200;" fill="rgb(50, 49, 63)" stroke="none" stroke-width="1px">4k</text><text x="526.4733333333334" y="0" dx="0em" dy="0.95em" style="text-anchor: middle; visibility: inherit; font-family: &quot;Helvetica Neue&quot;, sans-serif; font-size: 12px; font-weight: 200;" fill="rgb(50, 49, 63)" stroke="none" stroke-width="1px">6k</text><text x="658.0916666666667" y="0" dx="0em" dy="0.95em" style="text-anchor: middle; visibility: inherit; font-family: &quot;Helvetica Neue&quot;, sans-serif; font-size: 12px; font-weight: 200;" fill="rgb(50, 49, 63)" stroke="none" stroke-width="1px">8k</text><text x="789.71" y="0" dx="0em" dy="0.95em" style="text-anchor: middle; visibility: inherit; font-family: &quot;Helvetica Neue&quot;, sans-serif; font-size: 12px; font-weight: 200;" fill="rgb(50, 49, 63)" stroke="none" stroke-width="1px">10k</text><text x="921.3283333333335" y="0" dx="0em" dy="0.95em" style="text-anchor: middle; visibility: inherit; font-family: &quot;Helvetica Neue&quot;, sans-serif; font-size: 12px; font-weight: 200;" fill="rgb(50, 49, 63)" stroke="none" stroke-width="1px">12k</text><text x="1052.9466666666667" y="0" dx="0em" dy="0.95em" style="text-anchor: middle; visibility: inherit; font-family: &quot;Helvetica Neue&quot;, sans-serif; font-size: 12px; font-weight: 200;" fill="rgb(50, 49, 63)" stroke="none" stroke-width="1px">14k</text><text x="1184.565" y="0" dx="0em" dy="0.95em" style="text-anchor: middle; visibility: inherit; font-family: &quot;Helvetica Neue&quot;, sans-serif; font-size: 12px; font-weight: 200;" fill="rgb(50, 49, 63)" stroke="none" stroke-width="1px">16k</text><text x="1316.1833333333334" y="0" dx="0em" dy="0.95em" style="text-anchor: middle; visibility: inherit; font-family: &quot;Helvetica Neue&quot;, sans-serif; font-size: 12px; font-weight: 200;" fill="rgb(50, 49, 63)" stroke="none" stroke-width="1px">18k</text><text x="1447.8016666666667" y="0" dx="0em" dy="0.95em" style="text-anchor: middle; visibility: inherit; font-family: &quot;Helvetica Neue&quot;, sans-serif; font-size: 12px; font-weight: 200;" fill="rgb(50, 49, 63)" stroke="none" stroke-width="1px">20k</text><text x="1579.42" y="0" dx="0em" dy="0.95em" style="text-anchor: middle; visibility: hidden; font-family: &quot;Helvetica Neue&quot;, sans-serif; font-size: 12px; font-weight: 200;" fill="rgb(50, 49, 63)" stroke="none" stroke-width="1px">22k</text></g><line x1="0" y1="0" x2="1579.42" y2="0" fill="rgb(0, 0, 0)" stroke="rgb(204, 204, 204)" stroke-width="1px"></line></g></g></g></g></svg>