<svg viewBox="0 0 1631.666748046875 400.0000305175781" xmlns="http://www.w3.org/2000/svg"><g><g><g><g><g><line x1="31.125" y1="376" x2="26.125" y2="376" style="visibility: inherit;" fill="rgb(0, 0, 0)" stroke="rgb(204, 204, 204)" stroke-width="1px"></line><line x1="31.125" y1="334.22222222222223" x2="26.125" y2="334.22222222222223" style="visibility: inherit;" fill="rgb(0, 0, 0)" stroke="rgb(204, 204, 204)" stroke-width="1px"></line><line x1="31.125" y1="292.44444444444446" x2="26.125" y2="292.44444444444446" style="visibility: inherit;" fill="rgb(0, 0, 0)" stroke="rgb(204, 204, 204)" stroke-width="1px"></line><line x1="31.125" y1="250.66666666666669" x2="26.125" y2="250.66666666666669" style="visibility: inherit;" fill="rgb(0, 0, 0)" stroke="rgb(204, 204, 204)" stroke-width="1px"></line><line x1="31.125" y1="208.88888888888889" x2="26.125" y2="208.88888888888889" style="visibility: inherit;" fill="rgb(0, 0, 0)" stroke="rgb(204, 204, 204)" stroke-width="1px"></line><line x1="31.125" y1="167.11111111111111" x2="26.125" y2="167.11111111111111" style="visibility: inherit;" fill="rgb(0, 0, 0)" stroke="rgb(204, 204, 204)" stroke-width="1px"></line><line x1="31.125" y1="125.33333333333334" x2="26.125" y2="125.33333333333334" style="visibility: inherit;" fill="rgb(0, 0, 0)" stroke="rgb(204, 204, 204)" stroke-width="1px"></line><line x1="31.125" y1="83.55555555555554" x2="26.125" y2="83.55555555555554" style="visibility: inherit;" fill="rgb(0, 0, 0)" stroke="rgb(204, 204, 204)" stroke-width="1px"></line><line x1="31.125" y1="41.77777777777777" x2="26.125" y2="41.77777777777777" style="visibility: inherit;" fill="rgb(0, 0, 0)" stroke="rgb(204, 204, 204)" stroke-width="1px"></line><line x1="31.125" y1="0" x2="26.125" y2="0" style="visibility: inherit;" fill="rgb(0, 0, 0)" stroke="rgb(204, 204, 204)" stroke-width="1px"></line></g><g transform="translate(21.125, 0)"><text x="0" y="376" dx="0em" dy="0.3em" style="text-anchor: end; visibility: hidden; font-family: &quot;Helvetica Neue&quot;, sans-serif; font-size: 12px; font-weight: 200;" fill="rgb(50, 49, 63)" stroke="none" stroke-width="1px">-1</text><text x="0" y="334.22222222222223" dx="0em" dy="0.3em" style="text-anchor: end; visibility: inherit; font-family: &quot;Helvetica Neue&quot;, sans-serif; font-size: 12px; font-weight: 200;" fill="rgb(50, 49, 63)" stroke="none" stroke-width="1px">0</text><text x="0" y="292.44444444444446" dx="0em" dy="0.3em" style="text-anchor: end; visibility: inherit; font-family: &quot;Helvetica Neue&quot;, sans-serif; font-size: 12px; font-weight: 200;" fill="rgb(50, 49, 63)" stroke="none" stroke-width="1px">1</text><text x="0" y="250.66666666666669" dx="0em" dy="0.3em" style="text-anchor: end; visibility: inherit; font-family: &quot;Helvetica Neue&quot;, sans-serif; font-size: 12px; font-weight: 200;" fill="rgb(50, 49, 63)" stroke="none" stroke-width="1px">2</text><text x="0" y="208.88888888888889" dx="0em" dy="0.3em" style="text-anchor: end; visibility: inherit; font-family: &quot;Helvetica Neue&quot;, sans-serif; font-size: 12px; font-weight: 200;" fill="rgb(50, 49, 63)" stroke="none" stroke-width="1px">3</text><text x="0" y="167.11111111111111" dx="0em" dy="0.3em" style="text-anchor: end; visibility: inherit; font-family: &quot;Helvetica Neue&quot;, sans-serif; font-size: 12px; font-weight: 200;" fill="rgb(50, 49, 63)" stroke="none" stroke-width="1px">4</text><text x="0" y="125.33333333333334" dx="0em" dy="0.3em" style="text-anchor: end; visibility: inherit; font-family: &quot;Helvetica Neue&quot;, sans-serif; font-size: 12px; font-weight: 200;" fill="rgb(50, 49, 63)" stroke="none" stroke-width="1px">5</text><text x="0" y="83.55555555555554" dx="0em" dy="0.3em" style="text-anchor: end; visibility: inherit; font-family: &quot;Helvetica Neue&quot;, sans-serif; font-size: 12px; font-weight: 200;" fill="rgb(50, 49, 63)" stroke="none" stroke-width="1px">6</text><text x="0" y="41.77777777777777" dx="0em" dy="0.3em" style="text-anchor: end; visibility: inherit; font-family: &quot;Helvetica Neue&quot;, sans-serif; font-size: 12px; font-weight: 200;" fill="rgb(50, 49, 63)" stroke="none" stroke-width="1px">7</text><text x="0" y="0" dx="0em" dy="0.3em" style="text-anchor: end; visibility: hidden; font-family: &quot;Helvetica Neue&quot;, sans-serif; font-size: 12px; font-weight: 200;" fill="rgb(50, 49, 63)" stroke="none" stroke-width="1px">8</text></g><line x1="31.125" y1="0" x2="31.125" y2="376" fill="rgb(0, 0, 0)" stroke="rgb(204, 204, 204)" stroke-width="1px"></line></g></g><g transform="translate(31, 0)" clip-path="url(#clip_0)"><clipPath id="clip_0"><rect width="1600" height="375"></rect></clipPath><g><g><g><line x1="0" y1="0" x2="0" y2="376" fill="rgb(0, 0, 0)" stroke="rgb(60, 60, 60)" stroke-width="1px" opacity="0.25"></line><line x1="133.37875" y1="0" x2="133.37875" y2="376" fill="rgb(0, 0, 0)" stroke="rgb(60, 60, 60)" stroke-width="1px" opacity="0.25"></line><line x1="266.7575" y1="0" x2="266.7575" y2="376" fill="rgb(0, 0, 0)" stroke="rgb(60, 60, 60)" stroke-width="1px" opacity="0.25"></line><line x1="400.13625" y1="0" x2="400.13625" y2="376" fill="rgb(0, 0, 0)" stroke="rgb(60, 60, 60)" stroke-width="1px" opacity="0.25"></line><line x1="533.515" y1="0" x2="533.515" y2="376" fill="rgb(0, 0, 0)" stroke="rgb(60, 60, 60)" stroke-width="1px" opacity="0.25"></line><line x1="666.8937500000001" y1="0" x2="666.8937500000001" y2="376" fill="rgb(0, 0, 0)" stroke="rgb(60, 60, 60)" stroke-width="1px" opacity="0.25"></line><line x1="800.2725" y1="0" x2="800.2725" y2="376" fill="rgb(0, 0, 0)" stroke="rgb(60, 60, 60)" stroke-width="1px" opacity="0.25"></line><line x1="933.6512500000001" y1="0" x2="933.6512500000001" y2="376" fill="rgb(0, 0, 0)" stroke="rgb(60, 60, 60)" stroke-width="1px" opacity="0.25"></line><line x1="1067.03" y1="0" x2="1067.03" y2="376" fill="rgb(0, 0, 0)" stroke="rgb(60, 60, 60)" stroke-width="1px" opacity="0.25"></line><line x1="1200.40875" y1="0" x2="1200.40875" y2="376" fill="rgb(0, 0, 0)" stroke="rgb(60, 60, 60)" stroke-width="1px" opacity="0.25"></line><line x1="1333.7875000000001" y1="0" x2="1333.7875000000001" y2="376" fill="rgb(0, 0, 0)" stroke="rgb(60, 60, 60)" stroke-width="1px" opacity="0.25"></line><line x1="1467.16625" y1="0" x2="1467.16625" y2="376" fill="rgb(0, 0, 0)" stroke="rgb(60, 60, 60)" stroke-width="1px" opacity="0.25"></line><line x1="1600.545" y1="0" x2="1600.545" y2="376" fill="rgb(0, 0, 0)" stroke="rgb(60, 60, 60)" stroke-width="1px" opacity="0.25"></line></g><g><line x1="0" y1="376" x2="1600.545" y2="376" fill="rgb(0, 0, 0)" stroke="rgb(60, 60, 60)" stroke-width="1px" opacity="0.25"></line><line x1="0" y1="334.22222222222223" x2="1600.545" y2="334.22222222222223" fill="rgb(0, 0, 0)" stroke="rgb(60, 60, 60)" stroke-width="1px" opacity="0.25"></line><line x1="0" y1="292.44444444444446" x2="1600.545" y2="292.44444444444446" fill="rgb(0, 0, 0)" stroke="rgb(60, 60, 60)" stroke-width="1px" opacity="0.25"></line><line x1="0" y1="250.66666666666669" x2="1600.545" y2="250.66666666666669" fill="rgb(0, 0, 0)" stroke="rgb(60, 60, 60)" stroke-width="1px" opacity="0.25"></line><line x1="0" y1="208.88888888888889" x2="1600.545" y2="208.88888888888889" fill="rgb(0, 0, 0)" stroke="rgb(60, 60, 60)" stroke-width="1px" opacity="0.25"></line><line x1="0" y1="167.11111111111111" x2="1600.545" y2="167.11111111111111" fill="rgb(0, 0, 0)" stroke="rgb(60, 60, 60)" stroke-width="1px" opacity="0.25"></line><line x1="0" y1="125.33333333333334" x2="1600.545" y2="125.33333333333334" fill="rgb(0, 0, 0)" stroke="rgb(60, 60, 60)" stroke-width="1px" opacity="0.25"></line><line x1="0" y1="83.55555555555554" x2="1600.545" y2="83.55555555555554" fill="rgb(0, 0, 0)" stroke="rgb(60, 60, 60)" stroke-width="1px" opacity="0.25"></line><line x1="0" y1="41.77777777777777" x2="1600.545" y2="41.77777777777777" fill="rgb(0, 0, 0)" stroke="rgb(60, 60, 60)" stroke-width="1px" opacity="0.25"></line><line x1="0" y1="0" x2="1600.545" y2="0" fill="rgb(0, 0, 0)" stroke="rgb(60, 60, 60)" stroke-width="1px" opacity="0.25"></line></g></g></g><g><g><line x1="0" y1="334.22222222222223" x2="1600.545" y2="334.22222222222223" fill="rgb(0, 0, 0)" stroke="rgb(153, 153, 153)" stroke-width="1.5px"></line></g></g><g><g><line x1="133.37875" y1="0" x2="133.37875" y2="376" fill="rgb(0, 0, 0)" stroke="rgb(153, 153, 153)" stroke-width="1.5px"></line></g></g><g><g><g><g><g><path stroke="rgb(255, 112, 67)" stroke-width="2px" d="M160.121189375,-0.5852554410118387L166.790126875,9.014011569318427L173.459064375,18.66629718643196L180.128001875,28.320925574045475L186.796939375,37.54875539461119L193.465876875,46.49620992441862L200.134814375,55.121803642918906L206.80375187500002,63.68912789735691L213.472689375,72.07206082693074L220.14162687500001,80.23850952597553L226.81056437499998,88.30110483131591L233.479501875,96.17864583946016L240.14843937499998,103.9670388723689L246.817376875,111.44794271910854L253.486314375,118.77934116154967L260.15525187500003,125.99297389395844L266.824189375,133.01116232696015L273.49312687500003,139.9625082242L280.16206437500006,146.56101685667744L286.831001875,152.90083438869175L293.49993937500005,159.08227142512766L300.168876875,165.04883931441822L306.83781437500005,170.61379931864926L313.506751875,176.1019633474528L320.17568937500005,181.23075794182932L326.844626875,185.81430738837267L333.51356437500004,190.6263921120638L340.182501875,195.05567477515896L346.85143937500004,199.33353078483907L353.520376875,203.44699774254056L360.18931437500004,207.4094863689429L366.858251875,211.0190696797771L373.52718937500003,214.67592123452283L380.19612687500006,217.9343340502846L386.86506437500003,220.9883345576617L393.53400187500006,224.18628907573165L400.202939375,227.0384415724553L406.871876875,229.5563383448856L413.540814375,232.15905282796822L420.20975187500005,234.61006733427695L426.878689375,236.98748094918028L433.547626875,239.3870596620515L440.2165643750001,241.0539045493278L446.88550187500005,243.2453349103642L453.554439375,244.95778834180362L460.223376875,246.85006346055536L466.89231437500007,248.7013146690207L473.56125187500004,250.05991496447518L480.230189375,251.40940945164212L486.89912687500004,252.5889889818725L493.56806437500006,254.19131597281046L500.23700187500003,255.5397929745288L506.905939375,257.06987111552814L513.5748768750001,258.0349021428549L520.243814375,259.0417065478929L526.912751875,260.15710455787263L533.581689375,261.1981625421238L540.2506268750001,262.32984757138973L546.919564375,263.16409451525954L553.588501875,264.23517579823994L560.257439375,264.9808251241262L566.9263768750001,265.6546370507263L573.595314375,266.485140205018L580.264251875,267.1296417690205L586.9331893750001,267.81564673709863L593.6021268750001,268.48234263549375L600.271064375,269.11835663279635L606.940001875,269.7004977748438L613.6089393750001,269.6652694951879L620.2778768750001,270.25349803303664L626.946814375,270.8736521136859L633.615751875,271.4218997371786L640.2846893750001,271.8878862242787L646.953626875,272.25814346755874L653.622564375,272.70097088718944L660.291501875,272.9826182412709L666.9604393750001,273.33366846368347L673.629376875,273.6235530866058L680.298314375,273.9079409204314L686.9672518750001,274.2353036367993L693.6361893750001,274.4780241044157L700.305126875,274.70043466969423L706.974064375,274.94644174731894L713.6430018750001,275.16987005327417L720.3119393750001,275.3782191561914L726.980876875,275.5731819006159L733.649814375,275.78085876432516L740.3187518750001,275.9521521994452L746.9876893750001,276.0720286158775L753.656626875,276.15834553832804L760.325564375,276.3906237272123L766.9945018750001,276.516559769639L773.663439375,276.66604696441743L780.332376875,276.8150566369702L787.0013143750001,276.9306289325402L793.6702518750001,277.0191803278672L800.3391893750002,277.140338068004L807.0081268750001,277.2360536471446L813.6770643750001,277.4048922879097L820.3460018750001,277.43975230457636L827.014939375,277.52560942412765L833.683876875,277.5973616397196L840.352814375,277.6912897136631L847.021751875,277.7820942915903L853.6906893750001,277.8237378269887L860.3596268750001,277.8988556400544L867.0285643750001,277.9547853722868L873.6975018750001,278.06669726300424L880.366439375,278.10252429177604L887.035376875,278.1507766685037L893.704314375,278.2420475745885L900.3732518750002,278.27970179440047L907.0421893750001,278.3168049260598L913.7111268750001,278.3582309964073L920.3800643750001,278.39417676889207L927.049001875,278.4364403637712L933.717939375,278.46587638969015L940.386876875,278.52300388828456L947.055814375,278.54659864170014L953.7247518750002,278.62531411632165L960.3936893750001,278.7010984446329L967.0626268750001,278.81265561998885L973.7315643750001,278.85068626071944L980.400501875,278.36333076277936L987.069439375,278.662449514254L993.738376875,278.8199835431878L1000.4073143750002,278.99707931353475L1007.0762518750001,279.1723657148841L1013.7451893750001,279.34619596057377L1020.4141268750001,279.54492456520876L1027.083064375,279.87439609451263L1033.752001875,280.22738067835473L1040.420939375,280.6022662671203L1047.089876875,280.73155794651075L1053.7588143750002,281.0058109462241L1060.427751875,281.2883261130903L1067.096689375,281.6680138003819L1073.765626875,281.9461493480731L1080.434564375,282.14047411744303L1087.103501875,282.53642392223446L1093.772439375,282.943895716527L1100.441376875,283.02032357663114L1107.1103143750001,283.3808893838802L1113.779251875,283.3934888118738L1120.448189375,283.6404474673543L1127.117126875,283.910056300169L1133.786064375,284.25802901088207L1140.4550018749999,284.37477272370865L1147.123939375,284.6330324269498L1153.792876875,284.5917027043931L1160.4618143750001,284.2807787128865L1167.130751875,284.7777962818226L1173.799689375,285.1386749241771L1180.468626875,285.53512836725315L1187.137564375,285.95149834094923L1193.806501875,286.3197598088094L1200.4754393750002,286.65453047126385L1207.144376875,286.5494371514378L1213.8133143750001,286.33953006497836L1220.482251875,286.6598405433273L1227.151189375,287.2189613311369L1233.820126875,287.470770753489L1240.489064375,287.86639706648685L1247.158001875,288.0131453535396L1253.8269393750002,288.4962057613859L1260.495876875,288.46359352993807L1267.164814375,288.47767707675735L1273.833751875,288.5736450067694L1280.502689375,288.41004669271456L1287.171626875,288.98986978029075L1293.840564375,289.0432386982797L1300.509501875,289.13405746152154L1307.1784393750002,289.5161089747292L1313.847376875,289.6096187607598L1320.516314375,289.8836107306041L1327.185251875,290.55087269989133L1333.854189375,291.2178870537727L1340.523126875,291.2478462781485L1347.192064375,290.9889590113281L1353.861001875,291.12562956227373L1360.5299393750001,291.1105817982367L1367.198876875,291.71810322509407L1373.867814375,291.61858666311093L1380.536751875,292.05817463088925L1387.205689375,292.1210729405616L1393.874626875,292.55863433101445L1400.5435643750002,292.90027126548557L1407.212501875,293.11617920657056L1413.8814393750001,293.24512832743625L1420.550376875,293.916804872913L1427.219314375,293.1706007816173L1433.888251875,293.3375398826599L1440.557189375,293.62504526646933L1447.226126875,293.52792605429755L1453.8950643750002,293.73030844663833L1460.564001875,293.47365547949556" style="fill: none;" fill="none"></path></g></g></g></g><g opacity="0.2"><g><g><g><path stroke="rgb(255, 112, 67)" stroke-width="2px" d="M146.783314375,-8.423877292209227L153.452251875,1.9293878343370352L160.121189375,11.991006639268676L166.790126875,22.29325358072913L173.459064375,32.46922005547418L180.128001875,42.397466447618285L186.796939375,51.15801196628149L193.465876875,59.78213712904187L200.134814375,67.98196072048609L206.80375187500002,76.49349127875433L213.472689375,84.61908849080407L220.14162687500001,92.47218365139429L226.81056437499998,100.38552051120337L233.479501875,107.9894014994303L240.14843937499998,115.64633263481988L246.817376875,122.66739908854166L253.486314375,129.77532196044922L260.15525187500003,136.81276363796658L266.824189375,143.53806008232962L273.49312687500003,150.38929833306204L280.16206437500006,156.4586495293511L286.831001875,162.4104855855306L293.49993937500005,168.35438304477267L300.168876875,173.9986657036675L306.83781437500005,178.9612250857883L313.506751875,184.33420096503366L320.17568937500005,188.9239451090495L326.844626875,192.68962902492947L333.51356437500004,197.8445176018609L340.182501875,201.69959788852267L346.85143937500004,205.75031428866916L353.520376875,209.61719788445367L360.18931437500004,213.3532191382514L366.858251875,216.43344455295139L373.52718937500003,220.16119851006403L380.19612687500006,222.82195324367947L386.86506437500003,225.5693353017171L393.53400187500006,228.98322084214954L400.202939375,231.31667031182184L406.871876875,233.33318350050183L413.540814375,236.06312455071344L420.20975187500005,238.2865890926785L426.878689375,240.55360137091742L433.547626875,242.98642773098416L440.2165643750001,243.55417188008624L446.88550187500005,246.53248045179578L453.554439375,247.52646848890515L460.223376875,249.68847613864477L466.89231437500007,251.47819148169623L473.56125187500004,252.09781540764703L480.230189375,253.4336511823866L486.89912687500004,254.3583582772149L493.56806437500006,256.59480645921496L500.23700187500003,257.56250847710504L506.905939375,259.36498832702637L513.5748768750001,259.48244868384467L520.243814375,260.55191315544977L526.912751875,261.83020157284204L533.581689375,262.7597495185004L540.2506268750001,264.02737511528863L546.919564375,264.4154649310642L553.588501875,265.8417977227105L560.257439375,266.09929911295575L566.9263768750001,266.66535494062634L573.595314375,267.7308949364556L580.264251875,268.09639411502417L586.9331893750001,268.84465418921576L593.6021268750001,269.4823864830865L600.271064375,270.07237762875025L606.940001875,270.57370948791504L613.6089393750001,269.6124270757039L620.2778768750001,271.1358408398098L626.946814375,271.80388323465985L633.615751875,272.24427117241754L640.2846893750001,272.58686595492895L646.953626875,272.8135293324788L653.622564375,273.3652120166355L660.291501875,273.4050892723931L666.9604393750001,273.86024379730225L673.629376875,274.0583800209893L680.298314375,274.3345226711697L686.9672518750001,274.7263477113512L693.6361893750001,274.8421048058404L700.305126875,275.03405051761206L706.974064375,275.315452363756L713.6430018750001,275.50501251220703L720.3119393750001,275.6907428105672L726.980876875,275.8656260172526L733.649814375,276.09237405988904L740.3187518750001,276.20909235212537L746.9876893750001,276.251843240526L753.656626875,276.28782092200385L760.325564375,276.73904101053876L766.9945018750001,276.70546383327905L773.663439375,276.890277756585L780.332376875,277.03857114579944L787.0013143750001,277.1039873758952L793.6702518750001,277.15200742085773L800.3391893750002,277.3220746782091L807.0081268750001,277.3796270158556L813.6770643750001,277.65815024905737L820.3460018750001,277.4920423295763L827.014939375,277.6543951034546L833.683876875,277.70498996310766L840.352814375,277.8321818245782L847.021751875,277.9183011584812L853.6906893750001,277.88620313008624L860.3596268750001,278.0115323596531L867.0285643750001,278.0386799706353L873.6975018750001,278.2345650990804L880.366439375,278.15626483493384L887.035376875,278.2231552335951L893.704314375,278.3789539337158L900.3732518750002,278.3361831241184L907.0421893750001,278.3724596235487L913.7111268750001,278.4203701019287L920.3800643750001,278.4480954276191L927.049001875,278.49983575608996L933.717939375,278.51003042856854L940.386876875,278.6086951361762L947.055814375,278.5819907718235L953.7247518750002,278.74338732825385L960.3936893750001,278.81477493709986L967.0626268750001,278.9799913830227L973.7315643750001,278.9077322218153L980.400501875,277.63229751586914L987.069439375,279.11112764146594L993.738376875,279.05628458658856L1000.4073143750002,279.2627229690552L1007.0762518750001,279.4352953169081L1013.7451893750001,279.60694132910834L1020.4141268750001,279.8430174721612L1027.083064375,280.36860338846844L1033.752001875,280.75685755411786L1040.420939375,281.16459465026855L1047.089876875,280.9254954655965L1053.7588143750002,281.417190445794L1060.427751875,281.71209886338977L1067.096689375,282.2375453313192L1073.765626875,282.3633526696099L1080.434564375,282.4319612714979L1087.103501875,283.13034862942163L1093.772439375,283.55510340796576L1100.441376875,283.13496536678736L1107.1103143750001,283.92173809475366L1113.779251875,283.4123879538642L1120.448189375,284.0108854505751L1127.117126875,284.314469549391L1133.786064375,284.7799880769518L1140.4550018749999,284.54988829294837L1147.123939375,285.0204219818115L1153.792876875,284.529708120558L1160.4618143750001,283.8143927256266L1167.130751875,285.5233226352268L1173.799689375,285.67999288770886L1180.468626875,286.1298085318671L1187.137564375,286.5760533014933L1193.806501875,286.87215201059973L1200.4754393750002,287.15668646494544L1207.144376875,286.39179717169867L1213.8133143750001,286.0246694352892L1220.482251875,287.1403062608507L1227.151189375,288.0576425128513L1233.820126875,287.84848488701715L1240.489064375,288.45983653598364L1247.158001875,288.23326778411865L1253.8269393750002,289.2207963731554L1260.495876875,288.41467518276636L1267.164814375,288.4988023969862L1273.833751875,288.71759690178766L1280.502689375,288.1646492216322L1287.171626875,289.859604411655L1293.840564375,289.1232920752631L1300.509501875,289.2702856063843L1307.1784393750002,290.08918624454077L1313.847376875,289.7498834398058L1320.516314375,290.29459868537054L1327.185251875,291.55176565382214L1333.854189375,292.2184085845947L1340.523126875,291.29278511471216L1347.192064375,290.60062811109754L1353.861001875,291.33063538869226L1360.5299393750001,291.088010152181L1367.198876875,292.6293853653802L1373.867814375,291.46931182013617L1380.536751875,292.7175565825568L1387.205689375,292.21542040506995L1393.874626875,293.2149764166938L1400.5435643750002,293.41272666719226L1407.212501875,293.440041118198L1413.8814393750001,293.4385520087348L1420.550376875,294.9243196911282L1427.219314375,292.0512946446737L1433.888251875,293.58794853422376L1440.557189375,294.05630334218347L1447.226126875,293.3822472360399L1453.8950643750002,294.0338820351495L1460.564001875,293.0886760287815" style="fill: none;" fill="none"></path></g></g></g></g></g><g><g opacity="0.0674108"><span fill="rgb(0, 0, 0)" stroke="none" stroke-width="1px">Alt + Scroll to Zoom</span></g></g></g><g transform="translate(31, 376)" clip-path="url(#clip_1)"><clipPath id="clip_1"><rect width="1600" height="23"></rect></clipPath><g><g><line x1="0" y1="0" x2="0" y2="5" style="visibility: inherit;" fill="rgb(0, 0, 0)" stroke="rgb(204, 204, 204)" stroke-width="1px"></line><line x1="133.37875" y1="0" x2="133.37875" y2="5" style="visibility: inherit;" fill="rgb(0, 0, 0)" stroke="rgb(204, 204, 204)" stroke-width="1px"></line><line x1="266.7575" y1="0" x2="266.7575" y2="5" style="visibility: inherit;" fill="rgb(0, 0, 0)" stroke="rgb(204, 204, 204)" stroke-width="1px"></line><line x1="400.13625" y1="0" x2="400.13625" y2="5" style="visibility: inherit;" fill="rgb(0, 0, 0)" stroke="rgb(204, 204, 204)" stroke-width="1px"></line><line x1="533.515" y1="0" x2="533.515" y2="5" style="visibility: inherit;" fill="rgb(0, 0, 0)" stroke="rgb(204, 204, 204)" stroke-width="1px"></line><line x1="666.8937500000001" y1="0" x2="666.8937500000001" y2="5" style="visibility: inherit;" fill="rgb(0, 0, 0)" stroke="rgb(204, 204, 204)" stroke-width="1px"></line><line x1="800.2725" y1="0" x2="800.2725" y2="5" style="visibility: inherit;" fill="rgb(0, 0, 0)" stroke="rgb(204, 204, 204)" stroke-width="1px"></line><line x1="933.6512500000001" y1="0" x2="933.6512500000001" y2="5" style="visibility: inherit;" fill="rgb(0, 0, 0)" stroke="rgb(204, 204, 204)" stroke-width="1px"></line><line x1="1067.03" y1="0" x2="1067.03" y2="5" style="visibility: inherit;" fill="rgb(0, 0, 0)" stroke="rgb(204, 204, 204)" stroke-width="1px"></line><line x1="1200.40875" y1="0" x2="1200.40875" y2="5" style="visibility: inherit;" fill="rgb(0, 0, 0)" stroke="rgb(204, 204, 204)" stroke-width="1px"></line><line x1="1333.7875000000001" y1="0" x2="1333.7875000000001" y2="5" style="visibility: inherit;" fill="rgb(0, 0, 0)" stroke="rgb(204, 204, 204)" stroke-width="1px"></line><line x1="1467.16625" y1="0" x2="1467.16625" y2="5" style="visibility: inherit;" fill="rgb(0, 0, 0)" stroke="rgb(204, 204, 204)" stroke-width="1px"></line><line x1="1600.545" y1="0" x2="1600.545" y2="5" style="visibility: inherit;" fill="rgb(0, 0, 0)" stroke="rgb(204, 204, 204)" stroke-width="1px"></line></g><g transform="translate(0, 8)"><text x="0" y="0" dx="0em" dy="0.95em" style="text-anchor: middle; visibility: hidden; font-family: &quot;Helvetica Neue&quot;, sans-serif; font-size: 12px; font-weight: 200;" fill="rgb(50, 49, 63)" stroke="none" stroke-width="1px">-2k</text><text x="133.37875" y="0" dx="0em" dy="0.95em" style="text-anchor: middle; visibility: inherit; font-family: &quot;Helvetica Neue&quot;, sans-serif; font-size: 12px; font-weight: 200;" fill="rgb(50, 49, 63)" stroke="none" stroke-width="1px">0</text><text x="266.7575" y="0" dx="0em" dy="0.95em" style="text-anchor: middle; visibility: inherit; font-family: &quot;Helvetica Neue&quot;, sans-serif; font-size: 12px; font-weight: 200;" fill="rgb(50, 49, 63)" stroke="none" stroke-width="1px">2k</text><text x="400.13625" y="0" dx="0em" dy="0.95em" style="text-anchor: middle; visibility: inherit; font-family: &quot;Helvetica Neue&quot;, sans-serif; font-size: 12px; font-weight: 200;" fill="rgb(50, 49, 63)" stroke="none" stroke-width="1px">4k</text><text x="533.515" y="0" dx="0em" dy="0.95em" style="text-anchor: middle; visibility: inherit; font-family: &quot;Helvetica Neue&quot;, sans-serif; font-size: 12px; font-weight: 200;" fill="rgb(50, 49, 63)" stroke="none" stroke-width="1px">6k</text><text x="666.8937500000001" y="0" dx="0em" dy="0.95em" style="text-anchor: middle; visibility: inherit; font-family: &quot;Helvetica Neue&quot;, sans-serif; font-size: 12px; font-weight: 200;" fill="rgb(50, 49, 63)" stroke="none" stroke-width="1px">8k</text><text x="800.2725" y="0" dx="0em" dy="0.95em" style="text-anchor: middle; visibility: inherit; font-family: &quot;Helvetica Neue&quot;, sans-serif; font-size: 12px; font-weight: 200;" fill="rgb(50, 49, 63)" stroke="none" stroke-width="1px">10k</text><text x="933.6512500000001" y="0" dx="0em" dy="0.95em" style="text-anchor: middle; visibility: inherit; font-family: &quot;Helvetica Neue&quot;, sans-serif; font-size: 12px; font-weight: 200;" fill="rgb(50, 49, 63)" stroke="none" stroke-width="1px">12k</text><text x="1067.03" y="0" dx="0em" dy="0.95em" style="text-anchor: middle; visibility: inherit; font-family: &quot;Helvetica Neue&quot;, sans-serif; font-size: 12px; font-weight: 200;" fill="rgb(50, 49, 63)" stroke="none" stroke-width="1px">14k</text><text x="1200.40875" y="0" dx="0em" dy="0.95em" style="text-anchor: middle; visibility: inherit; font-family: &quot;Helvetica Neue&quot;, sans-serif; font-size: 12px; font-weight: 200;" fill="rgb(50, 49, 63)" stroke="none" stroke-width="1px">16k</text><text x="1333.7875000000001" y="0" dx="0em" dy="0.95em" style="text-anchor: middle; visibility: inherit; font-family: &quot;Helvetica Neue&quot;, sans-serif; font-size: 12px; font-weight: 200;" fill="rgb(50, 49, 63)" stroke="none" stroke-width="1px">18k</text><text x="1467.16625" y="0" dx="0em" dy="0.95em" style="text-anchor: middle; visibility: inherit; font-family: &quot;Helvetica Neue&quot;, sans-serif; font-size: 12px; font-weight: 200;" fill="rgb(50, 49, 63)" stroke="none" stroke-width="1px">20k</text><text x="1600.545" y="0" dx="0em" dy="0.95em" style="text-anchor: middle; visibility: hidden; font-family: &quot;Helvetica Neue&quot;, sans-serif; font-size: 12px; font-weight: 200;" fill="rgb(50, 49, 63)" stroke="none" stroke-width="1px">22k</text></g><line x1="0" y1="0" x2="1600.545" y2="0" fill="rgb(0, 0, 0)" stroke="rgb(204, 204, 204)" stroke-width="1px"></line></g></g></g></g></svg>